<svg xmlns="http://www.w3.org/2000/svg" viewBox="0 0 472.4 472.4"><title>Asset 1</title><g id="Layer_2" data-name="Layer 2"><g id="Layer_1-2" data-name="Layer 1"><path d="M236.2,0C105.75,0,0,105.75,0,236.2S105.75,472.4,236.2,472.4,472.4,366.65,472.4,236.2,366.65,0,236.2,0Zm64.15,310.15a8.26,8.26,0,0,1-8.3,8.2H130.25a45.43,45.43,0,0,1-45.6-45.2v-111A8.26,8.26,0,0,1,93,154h161.8a45.43,45.43,0,0,1,45.6,45.2Zm87.4.4c0,9.9-5.5,8.7-10.3,5.1L310.65,267v-61.5l66.8-48.8c5.8-4.8,10.3-3.6,10.3,5.1Z"/></g></g></svg>